<?xml version="1.0" encoding="iso-8859-1"?>
<!-- Generator: Adobe Illustrator 19.0.0, SVG Export Plug-In . SVG Version: 6.00 Build 0)  -->
<svg xmlns="http://www.w3.org/2000/svg" xmlns:xlink="http://www.w3.org/1999/xlink" version="1.1" id="Layer_1" x="0px" y="0px" viewBox="0 0 512.001 512.001" style="enable-background:new 0 0 512.001 512.001;" xml:space="preserve">
<path style="fill:#6DB4F5;" d="M256.001,262.953c67.173,0,127.543-29.104,169.207-75.381l3.051-60.368  c3.37-65.491-47.527-119.074-113.105-119.074h-118.12c-65.578,0-116.564,53.588-113.301,119.085l3.062,60.359  C128.459,233.85,188.828,262.953,256.001,262.953z"/>
<path style="fill:#85C5FF;" d="M256.001,262.953c-67.172,0-127.542-29.104-169.207-75.38l9.871,194.586  c1.548,29.768,27.203,54.123,57.012,54.123h204.835c29.808,0,55.396-24.359,56.863-54.13l9.833-194.58  C383.543,233.849,323.173,262.953,256.001,262.953z"/>
<path style="fill:#6DB4F5;" d="M348.155,372.665c1.804-35.036-25.426-63.703-60.508-63.703h-63.192  c-35.082,0-62.359,28.669-60.613,63.708l92.16,21.679C256.001,394.349,348.155,372.67,348.155,372.665z"/>
<polygon style="fill:#5D8AE1;" points="163.841,372.67 167.068,436.283 344.94,436.283 348.155,372.67 "/>
<path style="fill:#48449E;" d="M127.034,125.018l1.696,33.436h254.537l1.692-33.477c0.374-7.259-0.308-14.351-1.967-21.11  l-253.941,0.005C127.37,110.645,126.672,117.751,127.034,125.018z"/>
<g>
	<circle style="fill:#FFD83D;" cx="212.646" cy="207.226" r="16.259"/>
	<circle style="fill:#FFD83D;" cx="299.361" cy="207.226" r="16.259"/>
</g>
<path d="M440.043,498.122l-32.517-32.517c-0.001,0-0.001-0.001-0.001-0.001l-25.677-25.677c23.184-9.169,40.37-31.421,41.647-57.365  l12.885-254.948c1.744-33.921-9.947-65.919-32.921-90.105C380.482,13.322,349.122,0,315.155,0H197.033  c-33.964,0-65.343,13.319-88.354,37.506s-34.755,56.189-33.066,90.12l12.933,254.956c1.347,25.889,18.524,48.098,41.659,57.296  l-25.727,25.727l-0.001,0.001l-32.518,32.518c-2.325,2.325-3.02,5.822-1.761,8.859c1.257,3.038,4.223,5.019,7.511,5.019h356.586  c3.288,0,6.253-1.98,7.511-5.019C443.063,503.944,442.367,500.447,440.043,498.122z M104.784,381.747L91.852,126.81  c-1.465-29.432,8.694-57.168,28.607-78.096c19.912-20.93,47.107-32.455,76.574-32.455h118.121c29.466,0,56.639,11.523,76.514,32.447  c19.875,20.924,29.987,48.653,28.473,78.08c0,0.002,0,0.004,0,0.008l-12.886,254.958c-1.26,25.586-23.126,46.402-48.743,46.402  h-5.021l2.784-55.071c0.987-19.192-5.634-37.307-18.647-51.007c-13.013-13.699-30.762-21.243-49.98-21.243h-63.192  c-19.217,0-36.975,7.543-50.007,21.241c-13.031,13.697-19.682,31.809-18.725,51.009l2.793,55.072h-4.84  C128.049,428.154,106.114,407.331,104.784,381.747z M174.795,428.154l-2.834-55.887c-0.732-14.701,4.335-28.546,14.267-38.985  c9.932-10.439,23.508-16.188,38.228-16.188h63.192c14.717,0,28.28,5.747,38.191,16.182c9.913,10.435,14.955,24.276,14.198,38.98  l-2.825,55.899H174.795V428.154z M153.676,444.413h204.836c1.568,0,3.123-0.078,4.667-0.193c0.108,0.122,0.212,0.247,0.329,0.364  l18.64,18.639H129.853l18.64-18.639c0.121-0.121,0.23-0.25,0.341-0.377C150.437,444.33,152.049,444.413,153.676,444.413z   M97.334,495.741l16.259-16.259h284.815l16.259,16.259H97.334z"/>
<path d="M383.268,166.583c4.33,0,7.901-3.394,8.119-7.719l1.693-33.47c0.411-7.978-0.327-15.873-2.192-23.466  c-0.892-3.635-4.151-6.19-7.894-6.19l-253.942,0.005c-3.735,0-6.99,2.546-7.89,6.171c-1.888,7.608-2.644,15.518-2.246,23.507  c0.001,0.002,0.001,0.004,0.001,0.008l1.695,33.436c0.219,4.324,3.789,7.718,8.119,7.718H383.268z M135.734,112.003l240.559-0.007  c0.583,4.118,0.767,8.325,0.55,12.569l-1.303,25.759H136.458l-1.304-25.711C134.941,120.356,135.136,116.137,135.734,112.003z"/>
<path d="M384.326,232.734c3.751-2.468,4.791-7.508,2.323-11.26c-2.468-3.751-7.512-4.791-11.26-2.324  c-35.472,23.337-76.754,35.672-119.39,35.672c-42.631,0-83.912-12.333-119.382-35.667c-3.751-2.469-8.793-1.428-11.26,2.324  c-2.467,3.75-1.426,8.792,2.324,11.26c38.131,25.084,82.502,38.343,128.318,38.343C301.82,271.082,346.195,257.822,384.326,232.734z  "/>
<path d="M188.256,207.23c0,13.448,10.941,24.388,24.388,24.388s24.388-10.94,24.388-24.388c0-13.448-10.941-24.388-24.388-24.388  C199.196,182.842,188.256,193.782,188.256,207.23z M220.773,207.23c0,4.483-3.646,8.129-8.129,8.129s-8.129-3.646-8.129-8.129  s3.646-8.129,8.129-8.129S220.773,202.747,220.773,207.23z"/>
<path d="M274.97,207.23c0,13.448,10.941,24.388,24.388,24.388c13.447,0,24.388-10.94,24.388-24.388  c0-13.448-10.941-24.388-24.388-24.388C285.911,182.842,274.97,193.782,274.97,207.23z M307.488,207.23  c0,4.483-3.646,8.129-8.129,8.129s-8.129-3.646-8.129-8.129s3.646-8.129,8.129-8.129C303.84,199.101,307.488,202.747,307.488,207.23  z"/>
<path d="M315.637,364.54H196.359c-4.491,0-8.129,3.64-8.129,8.129c0,4.49,3.639,8.129,8.129,8.129h119.278  c4.491,0,8.129-3.64,8.129-8.129C323.766,368.18,320.128,364.54,315.637,364.54z"/>
<g>
</g>
<g>
</g>
<g>
</g>
<g>
</g>
<g>
</g>
<g>
</g>
<g>
</g>
<g>
</g>
<g>
</g>
<g>
</g>
<g>
</g>
<g>
</g>
<g>
</g>
<g>
</g>
<g>
</g>
</svg>
